<mxfile host="app.diagrams.net" agent="Mozilla/5.0 (Windows NT 10.0; Win64; x64) AppleWebKit/537.36 (KHTML, like Gecko) Chrome/128.0.0.0 Safari/537.36" version="24.7.17">
  <diagram name="Page-1" id="yytgZg72hNOTVUlJpi9n">
    <mxGraphModel dx="1420" dy="724" grid="1" gridSize="10" guides="1" tooltips="1" connect="1" arrows="1" fold="1" page="1" pageScale="1" pageWidth="850" pageHeight="1100" math="0" shadow="0">
      <root>
        <mxCell id="0" />
        <mxCell id="1" parent="0" />
        <mxCell id="jS-4y7qqywsbbItmD3TV-1" value="&lt;span style=&quot;font-size:12.0pt;font-family:&amp;quot;Nokia Pure Text Light&amp;quot;;&lt;br/&gt;mso-ascii-font-family:&amp;quot;Nokia Pure Text Light&amp;quot;;mso-fareast-font-family:+mn-ea;&lt;br/&gt;mso-bidi-font-family:+mn-cs;mso-ascii-theme-font:minor-latin;mso-fareast-theme-font:&lt;br/&gt;minor-fareast;mso-bidi-theme-font:minor-bidi;color:#001135;mso-color-index:&lt;br/&gt;3;mso-font-kerning:12.0pt;language:en-US;mso-style-textfill-type:solid;&lt;br/&gt;mso-style-textfill-fill-themecolor:text2;mso-style-textfill-fill-color:#001135;&lt;br/&gt;mso-style-textfill-fill-alpha:100.0%&quot;&gt;RequestScopeHelper&lt;/span&gt;" style="swimlane;fontStyle=1;align=center;verticalAlign=top;childLayout=stackLayout;horizontal=1;startSize=26;horizontalStack=0;resizeParent=1;resizeParentMax=0;resizeLast=0;collapsible=1;marginBottom=0;whiteSpace=wrap;html=1;" vertex="1" parent="1">
          <mxGeometry x="360" y="290" width="200" height="76" as="geometry" />
        </mxCell>
        <mxCell id="jS-4y7qqywsbbItmD3TV-4" value="&lt;p style=&quot;margin-top: 0pt; margin-bottom: 0pt; margin-left: 0in; direction: ltr; unicode-bidi: embed; word-break: normal;&quot;&gt;&lt;span style=&quot;font-size:12.0pt;&lt;br/&gt;font-family:&amp;quot;Nokia Pure Text Light&amp;quot;;mso-ascii-font-family:&amp;quot;Nokia Pure Text Light&amp;quot;;&lt;br/&gt;mso-fareast-font-family:+mn-ea;mso-bidi-font-family:+mn-cs;mso-ascii-theme-font:&lt;br/&gt;minor-latin;mso-fareast-theme-font:minor-fareast;mso-bidi-theme-font:minor-bidi;&lt;br/&gt;color:#001135;mso-color-index:3;mso-font-kerning:12.0pt;language:en-US;&lt;br/&gt;mso-style-textfill-type:solid;mso-style-textfill-fill-themecolor:text2;&lt;br/&gt;mso-style-textfill-fill-color:#001135;mso-style-textfill-fill-alpha:100.0%&quot;&gt;get(&lt;/span&gt;&lt;span style=&quot;font-size:12.0pt;font-family:&amp;quot;Nokia Pure Text Light&amp;quot;;&lt;br/&gt;mso-ascii-font-family:&amp;quot;Nokia Pure Text Light&amp;quot;;mso-fareast-font-family:+mn-ea;&lt;br/&gt;mso-bidi-font-family:+mn-cs;mso-ascii-theme-font:minor-latin;mso-fareast-theme-font:&lt;br/&gt;minor-fareast;mso-bidi-theme-font:minor-bidi;color:#001135;mso-color-index:&lt;br/&gt;3;mso-font-kerning:12.0pt;language:en-US;mso-style-textfill-type:solid;&lt;br/&gt;mso-style-textfill-fill-themecolor:text2;mso-style-textfill-fill-color:#001135;&lt;br/&gt;mso-style-textfill-fill-alpha:100.0%&quot;&gt;scopeKey&lt;/span&gt;&lt;span style=&quot;font-size:&lt;br/&gt;12.0pt;font-family:&amp;quot;Nokia Pure Text Light&amp;quot;;mso-ascii-font-family:&amp;quot;Nokia Pure Text Light&amp;quot;;&lt;br/&gt;mso-fareast-font-family:+mn-ea;mso-bidi-font-family:+mn-cs;mso-ascii-theme-font:&lt;br/&gt;minor-latin;mso-fareast-theme-font:minor-fareast;mso-bidi-theme-font:minor-bidi;&lt;br/&gt;color:#001135;mso-color-index:3;mso-font-kerning:12.0pt;language:en-US;&lt;br/&gt;mso-style-textfill-type:solid;mso-style-textfill-fill-themecolor:text2;&lt;br/&gt;mso-style-textfill-fill-color:#001135;mso-style-textfill-fill-alpha:100.0%&quot;&gt;)&lt;/span&gt;&lt;/p&gt;&lt;p style=&quot;margin-top: 0pt; margin-bottom: 0pt; margin-left: 0in; direction: ltr; unicode-bidi: embed; word-break: normal;&quot;&gt;&lt;span style=&quot;font-size:12.0pt;&lt;br/&gt;font-family:&amp;quot;Nokia Pure Text Light&amp;quot;;mso-ascii-font-family:&amp;quot;Nokia Pure Text Light&amp;quot;;&lt;br/&gt;mso-fareast-font-family:+mn-ea;mso-bidi-font-family:+mn-cs;mso-ascii-theme-font:&lt;br/&gt;minor-latin;mso-fareast-theme-font:minor-fareast;mso-bidi-theme-font:minor-bidi;&lt;br/&gt;color:#001135;mso-color-index:3;mso-font-kerning:12.0pt;language:en-US;&lt;br/&gt;mso-style-textfill-type:solid;mso-style-textfill-fill-themecolor:text2;&lt;br/&gt;mso-style-textfill-fill-color:#001135;mso-style-textfill-fill-alpha:100.0%&quot;&gt;set(&lt;/span&gt;&lt;span style=&quot;font-size:12.0pt;font-family:&amp;quot;Nokia Pure Text Light&amp;quot;;&lt;br/&gt;mso-ascii-font-family:&amp;quot;Nokia Pure Text Light&amp;quot;;mso-fareast-font-family:+mn-ea;&lt;br/&gt;mso-bidi-font-family:+mn-cs;mso-ascii-theme-font:minor-latin;mso-fareast-theme-font:&lt;br/&gt;minor-fareast;mso-bidi-theme-font:minor-bidi;color:#001135;mso-color-index:&lt;br/&gt;3;mso-font-kerning:12.0pt;language:en-US;mso-style-textfill-type:solid;&lt;br/&gt;mso-style-textfill-fill-themecolor:text2;mso-style-textfill-fill-color:#001135;&lt;br/&gt;mso-style-textfill-fill-alpha:100.0%&quot;&gt;scopeKey&lt;/span&gt;&lt;span style=&quot;font-size:&lt;br/&gt;12.0pt;font-family:&amp;quot;Nokia Pure Text Light&amp;quot;;mso-ascii-font-family:&amp;quot;Nokia Pure Text Light&amp;quot;;&lt;br/&gt;mso-fareast-font-family:+mn-ea;mso-bidi-font-family:+mn-cs;mso-ascii-theme-font:&lt;br/&gt;minor-latin;mso-fareast-theme-font:minor-fareast;mso-bidi-theme-font:minor-bidi;&lt;br/&gt;color:#001135;mso-color-index:3;mso-font-kerning:12.0pt;language:en-US;&lt;br/&gt;mso-style-textfill-type:solid;mso-style-textfill-fill-themecolor:text2;&lt;br/&gt;mso-style-textfill-fill-color:#001135;mso-style-textfill-fill-alpha:100.0%&quot;&gt;,content)&lt;/span&gt;&lt;/p&gt;" style="text;strokeColor=none;fillColor=none;align=left;verticalAlign=top;spacingLeft=4;spacingRight=4;overflow=hidden;rotatable=0;points=[[0,0.5],[1,0.5]];portConstraint=eastwest;whiteSpace=wrap;html=1;" vertex="1" parent="jS-4y7qqywsbbItmD3TV-1">
          <mxGeometry y="26" width="200" height="50" as="geometry" />
        </mxCell>
        <mxCell id="jS-4y7qqywsbbItmD3TV-5" value="RequestScope" style="html=1;whiteSpace=wrap;" vertex="1" parent="1">
          <mxGeometry x="360" y="450" width="200" height="60" as="geometry" />
        </mxCell>
        <mxCell id="jS-4y7qqywsbbItmD3TV-8" value="" style="endArrow=block;startArrow=block;endFill=1;startFill=1;html=1;rounded=0;entryX=0.5;entryY=0;entryDx=0;entryDy=0;" edge="1" parent="1" source="jS-4y7qqywsbbItmD3TV-4" target="jS-4y7qqywsbbItmD3TV-5">
          <mxGeometry width="160" relative="1" as="geometry">
            <mxPoint x="410" y="410" as="sourcePoint" />
            <mxPoint x="550" y="420" as="targetPoint" />
          </mxGeometry>
        </mxCell>
      </root>
    </mxGraphModel>
  </diagram>
</mxfile>
